<svg width="676" height="640" viewBox="0 0 676 640" fill="none" xmlns="http://www.w3.org/2000/svg">
<path fill-rule="evenodd" clip-rule="evenodd" d="M366.667 38.0165C366.67 33.17 365.264 28.427 362.621 24.3647C359.977 20.3025 356.21 17.0962 351.778 15.136C347.345 13.1758 342.439 12.5463 337.655 13.324C332.871 14.1017 328.417 16.2532 324.833 19.5165L148.667 179.683H58.3333C42.8624 179.683 28.0251 185.829 17.0854 196.769C6.14581 207.708 0 222.546 0 238.017V388.017C0 420.217 26.1333 446.35 58.3333 446.35H148.667L324.833 606.517C328.417 609.78 332.871 611.931 337.655 612.709C342.439 613.487 347.345 612.857 351.778 610.897C356.21 608.937 359.977 605.731 362.621 601.668C365.264 597.606 366.67 592.863 366.667 588.016V38.0165ZM175.167 223.183L316.667 94.5165V531.517L175.167 402.85C170.56 398.663 164.558 396.345 158.333 396.35H58.3333C56.1232 396.35 54.0036 395.472 52.4408 393.909C50.878 392.346 50 390.227 50 388.017V238.017C50 235.806 50.878 233.687 52.4408 232.124C54.0036 230.561 56.1232 229.683 58.3333 229.683H158.333C164.558 229.688 170.56 227.37 175.167 223.183Z" fill="black"/>
<path d="M461.023 158.057L461.029 158.064L461.036 158.071C480.73 178.307 496.349 202.383 506.996 228.855C517.643 255.327 523.108 283.705 523.077 312.359V312.36C523.108 341.015 517.643 369.393 506.996 395.865C496.349 422.337 480.73 446.381 461.036 466.618L461.029 466.624L461.023 466.631C458.986 468.884 456.529 470.689 453.801 471.941C451.072 473.193 448.128 473.866 445.142 473.92C442.157 473.975 439.191 473.409 436.422 472.257C433.652 471.105 431.136 469.39 429.022 467.213C426.908 465.036 425.241 462.443 424.121 459.586C423.001 456.73 422.451 453.67 422.503 450.589C422.556 447.508 423.211 444.47 424.428 441.657C425.646 438.843 427.4 436.311 429.587 434.213L429.593 434.207L429.599 434.201C445.159 418.217 457.495 399.224 465.901 378.314C474.306 357.404 478.614 334.99 478.577 312.36C478.618 289.725 474.312 267.304 465.906 246.389C457.501 225.473 445.162 206.475 429.599 190.487L429.593 190.481L429.587 190.475C427.4 188.377 425.646 185.846 424.428 183.032C423.211 180.218 422.556 177.18 422.503 174.099C422.451 171.018 423.001 167.958 424.121 165.102C425.241 162.246 426.908 159.652 429.022 157.475C431.136 155.299 433.652 153.583 436.422 152.431C439.191 151.279 442.157 150.714 445.142 150.768C448.128 150.822 451.072 151.495 453.801 152.747C456.529 153.999 458.986 155.805 461.023 158.057ZM552.721 41.5036C558.478 41.399 564.052 43.5984 568.27 47.6431C634.031 115.342 674.744 208.967 674.744 312.36V312.36C674.8 361.534 665.421 410.235 647.148 455.665C628.875 501.092 602.068 542.354 568.267 577.079C564.068 581.251 558.45 583.555 552.622 583.5C546.793 583.445 541.215 581.034 537.09 576.782C532.965 572.53 530.624 566.776 530.576 560.759C530.528 554.744 532.776 548.952 536.831 544.631C594.581 485.153 630.244 403.088 630.244 312.361C630.305 269.21 622.084 226.473 606.052 186.606C590.022 146.741 566.498 110.532 536.834 80.0606C532.905 75.7153 530.765 69.9671 530.867 64.0252C530.969 58.0803 533.307 52.4109 537.385 48.2108C541.463 44.0111 546.961 41.6082 552.721 41.5036Z" fill="#0F0000" stroke="black"/>
<line opacity="0.7" x1="627.102" y1="626.343" x2="78.1015" y2="13.343" stroke="black" stroke-width="40"/>
</svg>
