<svg width="676" height="640" viewBox="0 0 676 601" fill="none" xmlns="http://www.w3.org/2000/svg">
<path fill-rule="evenodd" clip-rule="evenodd" d="M366.667 25.0165C366.67 20.17 365.264 15.427 362.621 11.3647C359.977 7.30247 356.21 4.09616 351.778 2.13598C347.345 0.175796 342.439 -0.453732 337.655 0.323998C332.871 1.10173 328.417 3.25318 324.833 6.51654L148.667 166.683H58.3333C42.8624 166.683 28.0251 172.829 17.0854 183.769C6.14581 194.708 0 209.546 0 225.017V375.017C0 407.217 26.1333 433.35 58.3333 433.35H148.667L324.833 593.517C328.417 596.78 332.871 598.931 337.655 599.709C342.439 600.487 347.345 599.857 351.778 597.897C356.21 595.937 359.977 592.731 362.621 588.668C365.264 584.606 366.67 579.863 366.667 575.017V25.0165ZM175.167 210.183L316.667 81.5165V518.517L175.167 389.85C170.56 385.663 164.558 383.345 158.333 383.35H58.3333C56.1232 383.35 54.0036 382.472 52.4408 380.909C50.878 379.346 50 377.227 50 375.017V225.017C50 222.806 50.878 220.687 52.4408 219.124C54.0036 217.561 56.1232 216.683 58.3333 216.683H158.333C164.558 216.688 170.56 214.37 175.167 210.183Z" fill="black"/>
<path d="M461.023 145.057L461.029 145.064L461.036 145.071C480.73 165.307 496.349 189.383 506.996 215.855C517.643 242.327 523.108 270.705 523.077 299.359V299.36C523.108 328.015 517.643 356.393 506.996 382.865C496.349 409.337 480.73 433.381 461.036 453.618L461.029 453.624L461.023 453.631C458.986 455.884 456.529 457.689 453.801 458.941C451.072 460.193 448.128 460.866 445.142 460.92C442.157 460.975 439.191 460.409 436.422 459.257C433.652 458.105 431.136 456.39 429.022 454.213C426.908 452.036 425.241 449.443 424.121 446.586C423.001 443.73 422.451 440.67 422.503 437.589C422.556 434.508 423.211 431.47 424.428 428.657C425.646 425.843 427.4 423.311 429.587 421.213L429.593 421.207L429.599 421.201C445.159 405.217 457.495 386.224 465.901 365.314C474.306 344.404 478.614 321.99 478.577 299.36C478.618 276.725 474.312 254.304 465.906 233.389C457.501 212.473 445.162 193.475 429.599 177.487L429.593 177.481L429.587 177.475C427.4 175.377 425.646 172.846 424.428 170.032C423.211 167.218 422.556 164.18 422.503 161.099C422.451 158.018 423.001 154.958 424.121 152.102C425.241 149.246 426.908 146.652 429.022 144.475C431.136 142.299 433.652 140.583 436.422 139.431C439.191 138.279 442.157 137.714 445.142 137.768C448.128 137.822 451.072 138.495 453.801 139.747C456.529 140.999 458.986 142.805 461.023 145.057ZM552.721 28.5036C558.478 28.399 564.052 30.5984 568.27 34.6431C634.031 102.342 674.744 195.967 674.744 299.36V299.36C674.8 348.534 665.421 397.235 647.148 442.665C628.875 488.092 602.068 529.354 568.267 564.079C564.068 568.251 558.45 570.555 552.622 570.5C546.793 570.445 541.215 568.034 537.09 563.782C532.965 559.53 530.624 553.776 530.576 547.759C530.528 541.744 532.776 535.952 536.831 531.631C594.581 472.153 630.244 390.088 630.244 299.361C630.305 256.21 622.084 213.473 606.052 173.606C590.022 133.741 566.498 97.5323 536.834 67.0606C532.905 62.7153 530.765 56.9671 530.867 51.0252C530.969 45.0803 533.307 39.4109 537.385 35.2108C541.463 31.0111 546.961 28.6082 552.721 28.5036Z" fill="#0F0000" stroke="black"/>
</svg>
